<svg width="1438" height="359" viewBox="0 0 1438 359" fill="none" xmlns="http://www.w3.org/2000/svg">
<rect width="1438" height="359" fill="#1D1D1D"/>
<path d="M1423 0C1403.33 95 1378.8 299.8 1438 359L1169 229L1423 0Z" fill="#4C4AA5"/>
<path d="M960.008 245.149C958.808 246.349 1098.84 235.316 1169.01 229.649C1283.01 98.6488 1164.41 97.9489 960.008 245.149Z" fill="#8BEDF3"/>
<circle cx="1169" cy="254" r="24" fill="#54CDA1"/>
<path d="M1.586 155.584V141.066H44.286V155.584H31.476V220H14.396V155.584H1.586ZM67.8263 220H51.4783V141.066H67.8263V162.172C70.2663 160.22 73.6009 159.244 77.8303 159.244H80.3923C90.4776 159.244 95.5203 164.612 95.5203 175.348V220H79.1723V173.396C79.1723 172.745 78.9283 172.176 78.4403 171.688C78.0336 171.2 77.5049 170.956 76.8543 170.956H70.1443C68.7616 170.956 67.9889 171.688 67.8263 173.152V220ZM135.554 159.244C145.64 159.244 150.682 164.612 150.682 175.348V194.624H122.988V207.068C122.988 207.719 123.192 208.288 123.598 208.776C124.086 209.264 124.656 209.508 125.306 209.508H132.016C132.667 209.508 133.196 209.264 133.602 208.776C134.09 208.288 134.334 207.719 134.334 207.068V200.48H150.682V205.116C150.682 215.852 145.64 221.22 135.554 221.22H121.768C111.683 221.22 106.64 215.852 106.64 205.116V175.348C106.64 164.612 111.683 159.244 121.768 159.244H135.554ZM122.988 183.888H134.334V172.908C134.334 172.257 134.09 171.688 133.602 171.2C133.196 170.712 132.667 170.468 132.016 170.468H125.306C124.656 170.468 124.086 170.712 123.598 171.2C123.192 171.688 122.988 172.257 122.988 172.908V183.888ZM223.482 176.812C228.769 178.683 231.412 182.993 231.412 189.744V203.896C231.412 214.632 226.369 220 216.284 220H184.93V141.066H215.308C225.393 141.066 230.436 146.434 230.436 157.17V164.368C230.436 170.875 228.118 175.023 223.482 176.812ZM211.038 152.656H202.01V173.762H211.038C211.689 173.762 212.217 173.518 212.624 173.03C213.112 172.542 213.356 171.973 213.356 171.322V155.096C213.356 154.445 213.112 153.876 212.624 153.388C212.217 152.9 211.689 152.656 211.038 152.656ZM214.332 205.848V188.158C214.332 187.507 214.088 186.938 213.6 186.45C213.193 185.962 212.665 185.718 212.014 185.718H202.01V208.288H212.014C212.665 208.288 213.193 208.044 213.6 207.556C214.088 207.068 214.332 206.499 214.332 205.848ZM258.809 220H242.461V141.066H258.809V220ZM297.438 160.464H313.786V220H298.902V216.95C296.381 219.797 292.558 221.22 287.434 221.22H284.872C274.787 221.22 269.744 215.852 269.744 205.116V160.464H286.092V207.068C286.092 207.719 286.295 208.288 286.702 208.776C287.19 209.264 287.759 209.508 288.41 209.508H295.12C295.771 209.508 296.299 209.264 296.706 208.776C297.194 208.288 297.438 207.719 297.438 207.068V160.464ZM353.82 159.244C363.905 159.244 368.948 164.612 368.948 175.348V194.624H341.254V207.068C341.254 207.719 341.457 208.288 341.864 208.776C342.352 209.264 342.921 209.508 343.572 209.508H350.282C350.933 209.508 351.461 209.264 351.868 208.776C352.356 208.288 352.6 207.719 352.6 207.068V200.48H368.948V205.116C368.948 215.852 363.905 221.22 353.82 221.22H340.034C329.949 221.22 324.906 215.852 324.906 205.116V175.348C324.906 164.612 329.949 159.244 340.034 159.244H353.82ZM341.254 183.888H352.6V172.908C352.6 172.257 352.356 171.688 351.868 171.2C351.461 170.712 350.933 170.468 350.282 170.468H343.572C342.921 170.468 342.352 170.712 341.864 171.2C341.457 171.688 341.254 172.257 341.254 172.908V183.888ZM420.276 189.012V220H403.196V141.066H420.276V174.128H433.818V141.066H450.898V220H433.818V189.012H420.276ZM492.769 160.464H506.555V220H492.769V215.608C490.248 219.349 486.059 221.22 480.203 221.22H477.641C467.556 221.22 462.513 215.852 462.513 205.116V175.348C462.513 164.612 467.556 159.244 477.641 159.244H480.203C486.059 159.244 490.248 161.115 492.769 164.856V160.464ZM490.207 207.068V173.396C490.207 172.745 489.963 172.176 489.475 171.688C489.069 171.2 488.54 170.956 487.889 170.956H481.179C480.529 170.956 479.959 171.2 479.471 171.688C479.065 172.176 478.861 172.745 478.861 173.396V207.068C478.861 207.719 479.065 208.288 479.471 208.776C479.959 209.264 480.529 209.508 481.179 209.508H487.889C488.54 209.508 489.069 209.264 489.475 208.776C489.963 208.288 490.207 207.719 490.207 207.068ZM539.392 210.606H544.272V221.22H532.804C522.718 221.22 517.676 215.852 517.676 205.116V147.532H534.024V160.464H544.272V172.298H534.024V204.75C534.024 207.027 534.471 208.573 535.366 209.386C536.26 210.199 537.602 210.606 539.392 210.606ZM580.882 182.668C590.967 182.668 596.01 188.036 596.01 198.772V205.116C596.01 215.852 590.967 221.22 580.882 221.22H567.34C557.255 221.22 552.212 215.852 552.212 205.116V201.334H567.34V206.702C567.34 207.353 567.543 207.922 567.95 208.41C568.438 208.898 569.007 209.142 569.658 209.142H579.662C580.313 209.142 580.841 208.898 581.248 208.41C581.736 207.922 581.98 207.353 581.98 206.702V199.382C581.98 198.731 581.736 198.162 581.248 197.674C580.841 197.186 580.313 196.942 579.662 196.942H567.096C557.011 196.942 551.968 191.574 551.968 180.838V175.348C551.968 164.612 557.011 159.244 567.096 159.244H579.906C589.991 159.244 595.034 164.612 595.034 175.348V177.544H579.906V173.762C579.906 173.111 579.662 172.542 579.174 172.054C578.767 171.566 578.239 171.322 577.588 171.322H568.316C567.665 171.322 567.096 171.566 566.608 172.054C566.201 172.542 565.998 173.111 565.998 173.762V180.228C565.998 180.879 566.201 181.448 566.608 181.936C567.096 182.424 567.665 182.668 568.316 182.668H580.882ZM674.671 161.806H658.445V155.584C658.445 154.933 658.201 154.364 657.713 153.876C657.307 153.388 656.778 153.144 656.127 153.144H649.417C648.767 153.144 648.197 153.388 647.709 153.876C647.303 154.364 647.099 154.933 647.099 155.584V169.614C647.099 170.265 647.303 170.834 647.709 171.322C648.197 171.81 648.767 172.054 649.417 172.054H660.397C670.483 172.217 675.525 177.585 675.525 188.158V205.116C675.525 215.852 670.483 221.22 660.397 221.22H646.001C635.916 221.22 630.873 215.852 630.873 205.116V196.942H647.099V205.726C647.099 206.377 647.303 206.946 647.709 207.434C648.197 207.922 648.767 208.166 649.417 208.166H656.981C657.632 208.166 658.161 207.922 658.567 207.434C659.055 206.946 659.299 206.377 659.299 205.726V190.232C659.299 189.581 659.055 189.012 658.567 188.524C658.161 188.036 657.632 187.792 656.981 187.792H646.001C635.916 187.792 630.873 182.424 630.873 171.688V155.95C630.873 145.214 635.916 139.846 646.001 139.846H659.543C669.629 139.846 674.671 145.214 674.671 155.95V161.806ZM715.054 159.244C725.14 159.244 730.182 164.612 730.182 175.348V194.624H702.488V207.068C702.488 207.719 702.692 208.288 703.098 208.776C703.586 209.264 704.156 209.508 704.806 209.508H711.516C712.167 209.508 712.696 209.264 713.102 208.776C713.59 208.288 713.834 207.719 713.834 207.068V200.48H730.182V205.116C730.182 215.852 725.14 221.22 715.054 221.22H701.268C691.183 221.22 686.14 215.852 686.14 205.116V175.348C686.14 164.612 691.183 159.244 701.268 159.244H715.054ZM702.488 183.888H713.834V172.908C713.834 172.257 713.59 171.688 713.102 171.2C712.696 170.712 712.167 170.468 711.516 170.468H704.806C704.156 170.468 703.586 170.712 703.098 171.2C702.692 171.688 702.488 172.257 702.488 172.908V183.888ZM764.534 159.244H767.706V175.104H759.654C756.889 175.104 755.506 176.527 755.506 179.374V220H739.158V160.464H754.042V166.198C756.401 161.562 759.898 159.244 764.534 159.244ZM802.469 160.464H818.329L805.275 220H783.681L770.627 160.464H786.487L794.539 206.702L802.469 160.464ZM854.33 159.244C864.415 159.244 869.458 164.612 869.458 175.348V194.624H841.764V207.068C841.764 207.719 841.967 208.288 842.374 208.776C842.862 209.264 843.431 209.508 844.082 209.508H850.792C851.442 209.508 851.971 209.264 852.378 208.776C852.866 208.288 853.11 207.719 853.11 207.068V200.48H869.458V205.116C869.458 215.852 864.415 221.22 854.33 221.22H840.544C830.458 221.22 825.416 215.852 825.416 205.116V175.348C825.416 164.612 830.458 159.244 840.544 159.244H854.33ZM841.764 183.888H853.11V172.908C853.11 172.257 852.866 171.688 852.378 171.2C851.971 170.712 851.442 170.468 850.792 170.468H844.082C843.431 170.468 842.862 170.712 842.374 171.2C841.967 171.688 841.764 172.257 841.764 172.908V183.888ZM903.809 159.244H906.981V175.104H898.929C896.164 175.104 894.781 176.527 894.781 179.374V220H878.433V160.464H893.317V166.198C895.676 161.562 899.173 159.244 903.809 159.244Z" fill="white"/>
</svg>
